<svg width="16" height="16" viewBox="0 0 512 512" fill="none" xmlns="http://www.w3.org/2000/svg">
<g filter="url(#filter0_d_44_90)">
<path d="M537.769 37.3517C535.63 40.3062 531.146 43.3544 527.388 45.3204C526.252 45.9028 525.615 44.3179 524.763 44.6858C523.031 45.4723 522.487 47.063 520.67 47.7733C520.074 47.9925 518.849 45.6811 518.288 45.9303C515.197 47.3334 513.322 50.0119 510.583 51.8942C496.859 61.3892 484.611 71.9431 471.76 82.8243C470.036 84.2794 467.891 85.6801 465.686 87.2027C462.797 89.1482 459.695 91.4259 457.764 94.1179C457.378 94.6593 459.2 95.9715 459.238 96.1888C459.781 99.5541 457.133 95.9022 455.795 96.378C450.4 98.3635 446.273 102.103 443.261 106.234C442.035 107.947 446.593 109.635 443.371 109.335C443.151 109.317 441.89 107.267 441.305 107.488C439.984 107.99 438.494 110.031 437.627 110.617C435.952 111.735 435.72 111.995 434.404 113.243C432.579 114.946 429.61 116.216 428.009 118.525C427.672 119.023 429.913 120.198 429.527 121.148C429.159 122.08 427.29 123.622 426.304 123.793C425.32 123.962 424.247 122.365 423.84 122.157C420.427 120.375 421.936 125.99 421.759 126.339C418.533 132.485 412.363 134.486 407.986 138.789C404.611 142.115 401.664 146.342 398.368 149.395C394.381 153.077 390.291 155.268 386.702 159.111C386.322 159.513 388.768 161.077 388.308 161.573C383.471 166.791 378.162 171.584 371.794 175.176C371.15 175.538 370.061 173.124 369.313 173.379C364.758 175.001 356.422 176.334 362.173 185.857C359.772 187.633 356.903 189.852 353.504 190.144C351.309 190.34 350.582 187.254 349.907 189.544C349.752 190.059 351.854 191.314 351.497 191.958C349.994 194.663 347.106 196.435 345.892 199.358C345.646 199.959 347.256 201.355 347.404 201.746C348.571 204.948 343.283 202.978 342.652 203.078C337.896 203.882 336.606 206.696 333.958 209.224C333.341 209.812 336.065 211.13 335.543 211.768C332.815 215.047 329.494 217.995 325.657 220.02C324.797 220.467 323.689 218.142 323.19 218.268C321.011 218.843 323.938 222.406 321.91 223.022C321.487 223.156 320.178 221.523 319.966 221.412C316.638 219.662 319.524 223.959 319.397 224.243C317.869 227.922 312.476 225.802 310.491 228.836C310.258 229.202 312.792 230.395 312.023 231.311C306.901 237.43 300.454 242.833 293.401 246.897C292.308 247.531 291.528 245.515 291.301 245.397C287.723 243.586 290.755 247.771 290.609 248.188C289.363 251.388 284.266 250.431 287.049 256.244C276.152 264.155 269.201 275.96 256.054 281.466C255.891 281.541 254.32 279.555 254.002 279.712C250.149 281.589 253.469 283.79 254.98 289.049C255.359 290.371 249.827 287.757 249.399 287.588C247.83 286.957 245.655 283.84 245.286 283.784C242.32 283.41 251.313 291.903 249.587 293.651C249.518 293.692 248.13 291.858 247.823 291.847C246.863 291.805 247.056 292.896 246.055 292.793C243.752 292.542 239.119 288.68 240.057 292.704C240.184 293.221 245.468 297.854 243.688 299.182C242.971 299.711 240.353 302.529 239.255 302.994C238.165 303.452 237.083 301.33 236.959 301.317C232.766 301.309 232.668 299.645 228.485 297.583C224.314 295.532 232.085 302.628 232.501 303.878C232.912 305.127 229.652 304.92 228.673 304.692C227.693 304.464 227.131 302.989 226.457 302.981C222.026 302.959 229.221 307.612 229.695 309.509C230.822 313.995 223.927 309.884 221.833 310.923C221.266 311.205 222.874 312.103 222.619 312.599C221.593 314.547 218.971 313.744 218.893 317.007C218.886 317.533 220.861 322.214 217.522 320.705C217.043 320.485 216.011 318.761 215.068 319.101C213.656 319.608 211.657 321.04 211.115 322.522C210.716 323.617 213.854 324.988 212.21 325.246C211.478 325.359 210.908 323.263 209.644 323.585C208.39 323.896 206.454 325.993 205.734 326.823C205.02 327.648 207.174 328.919 207.23 329.097C207.527 330.133 206.912 332.439 206.782 332.568C200.583 339.343 191.668 342.641 186.365 350.075C185.951 350.652 188.118 352.096 188.074 352.202C187.178 354.673 183.594 348.581 180.791 348.202C184.692 351.645 183.355 351.675 182.555 353.326C182.179 354.117 183.942 355.189 184.037 355.386C185.384 358.394 181.951 356.266 181.217 355.864C178.514 354.387 180.434 357.455 178.623 356.472C176.823 355.5 175.591 352.566 174.487 353.768C175.511 355.387 179.853 357.887 179.565 359.323C179.312 360.592 178.643 361.757 177.735 362.826C174.623 366.465 169.073 368.931 166.802 370.875C163.902 373.345 163.33 374.447 161.353 375.553C157.766 377.568 161.353 379.028 160.863 381.949C160.368 384.875 154.742 377.906 153.111 376.853C151.486 375.796 152.653 377.42 151.595 377.013C150.538 376.605 150.233 375.039 149.253 375.503C148.267 375.974 148.878 380.273 150.059 381.93C152.609 385.388 156.701 387.512 153.712 388.414C153.539 388.464 152.184 386.498 151.604 386.769C147.088 388.95 143.656 392.455 139.321 394.78C138.724 395.095 137.212 392.909 136.843 393.073C132.991 394.776 137.112 396.774 139.221 401.651C134.807 396.893 131.08 395.086 129.048 397.226C127.828 398.509 130.119 400.195 130.804 402.39C131.006 403.057 128.711 402.683 129.532 403.753C132.215 407.255 136.595 409.679 133.1 410.616C132.942 410.652 131.479 408.729 131.06 408.971C128.343 410.536 131.494 413.824 129.681 416.621C128.276 418.798 123.239 420.212 120.94 422.08C115.586 417.151 114.993 420.29 117.995 424.452C116.581 425.712 115.415 427.431 113.704 428.3C113.115 428.602 111.818 426.893 111.597 426.799C108.138 425.307 111.25 429.149 111.116 429.586C109.531 434.147 104.443 434.303 104.368 439.85C104.368 440.047 108 443.57 104.505 441.953C104.268 441.839 103.439 439.3 102.029 440.632C100.56 442.029 96.1159 442.988 96.0692 446.609C96.0525 447.486 98.05 451.442 94.7626 450.34C94.3181 450.188 93.3491 449.093 92.5725 448.757C90.088 447.7 93.6704 451.367 89.7275 449.292C85.79 447.211 81.9791 446.652 82.4725 450.679C82.48 450.804 85.1216 453.945 84.5056 454.567C83.5104 455.569 81.6335 456.473 80.702 457.612C80.2576 458.158 82.4672 459.44 82.4233 459.563C80.4832 464.036 76.6741 465.086 72.7153 468.337C71.9907 468.923 72.9766 473.114 69.7508 472.774C66.2189 472.405 57.9727 462.982 57.3614 468.39C57.1261 470.545 67.8541 482.181 59.5364 479.59C57.1876 485.748 50.3032 487.804 48.734 494.579C48.6609 494.884 51.5939 498.245 51.1547 498.723C50.473 499.459 48.5138 498.662 47.9824 499.141C45.7143 501.118 45.4745 504.354 43.5708 506.462C42.8414 507.28 41.3685 505.719 40.5115 506.679C39.732 507.555 41.0872 509.625 39.7262 510.406C39.596 510.484 39.442 510.551 39.2605 510.605C37.6434 511.076 32.2846 508.77 30.7059 509.809C35.2049 513.158 34.3777 514.093 34.3361 516.672C34.3225 517.18 36.1666 517.962 36.2419 518.261C36.584 519.503 34.8498 519.141 35.3044 520.382C35.4087 520.687 36.957 521.815 37.1308 522.126C38.6757 524.805 33.9651 523.984 33.1493 523.837C30.0296 523.304 31.6918 525.265 30.1624 525.484C28.6329 525.703 28.4052 523.597 27.1338 524.216C24.4999 525.503 22.8749 528.375 21.3225 530.495C20.7105 531.352 23.228 532.197 23.1893 532.354C22.5241 534.48 19.0462 534.797 22.6528 538.581C10.8295 532.605 23.0063 540.353 19.1638 541.473C18.8593 541.555 13.4256 538.496 13.1646 537.203C12.9045 535.911 15.3216 535.755 14.8437 533.887C14.7341 533.442 10.8603 528.725 10.7057 528.322C9.49812 525.158 17.3522 530.16 17.8336 530.359C23.0327 532.513 19.0394 527.22 19.024 526.479C18.8657 523.203 21.2112 522.138 21.3006 519.552C21.3882 517.839 16.4766 514.23 17.2965 513.401C19.9853 510.697 27.6092 514.663 23.6984 507.5C22.8622 505.978 17.057 502.631 22.8634 503.559C23.2295 503.617 28.278 504.831 26.5098 502.118C26.2877 501.775 24.72 500.63 24.7026 500.378C24.6835 500.004 24.7582 499.724 24.8885 499.496C25.3173 498.738 26.4079 498.609 26.5998 497.382C26.817 495.84 26.9695 493.78 28.4312 492.921C29.3193 492.388 32.9807 493.532 33.9507 493.714C36.7521 494.23 34.2906 490.547 37.2192 491.796C40.1793 493.029 42.9936 497.122 45.8613 496.659C41.8898 493.549 37.8752 490.275 33.9131 487.106C36.8955 483.471 41.0029 480.821 43.7356 476.981C44.0669 476.506 41.5688 475.296 41.8713 474.742C43.19 472.37 46.1061 471.804 47.2329 469.164C48.056 467.166 47.3205 463.504 48.1377 461.35C53.4911 463.911 54.0039 460.183 55.9575 458.642C56.6431 458.096 57.7833 459.137 58.5447 459.004C61.3837 458.488 56.7971 456.033 56.5677 455.051C55.6279 450.818 64.6453 458.028 66.3908 455.496C66.4829 455.367 63.0697 449.862 62.9631 449.394C62.1622 446.464 64.7848 450.555 65.829 450.021C67.7311 449.053 69.8013 448.881 69.9186 445.961C69.9469 445.103 68.0899 441.368 71.2225 442.27C71.6329 442.388 73.1149 443.784 73.298 443.754C76.4802 443.09 71.6376 438.921 70.9538 436.397C70.2581 433.887 75.121 435.008 76.3538 435.527C79.6084 436.793 76.8344 437.119 77.0251 437.393C79.4308 440.484 80.0012 438.812 81.05 438.098C85.9003 442.069 86.7524 440.514 82.1284 437.33C81.6207 436.986 81.4282 438.099 81.05 438.098C77.1109 433.256 77.7994 431.262 83.5357 433.428C86.2077 434.463 87.9525 437.235 89.0575 434.229C89.5679 432.861 85.9753 430.413 85.8957 428.721C85.7306 424.842 91.0663 424.881 92.5153 422.296C93.0161 421.385 90.5944 420.555 90.877 419.878C91.6249 418.072 94.0458 418.019 94.6392 415.993C94.691 415.807 92.5659 414.475 92.9387 414.011C95.6412 410.559 99.4722 408.67 102.561 405.326C104.09 403.667 105.759 399.806 107.517 398.288C110.618 395.573 116.504 394.48 118.24 391.311C119.343 389.292 117.183 387.987 116.591 386.144C115.431 382.588 121.961 384.15 122.929 384.438C122.959 384.45 122.07 386.266 123.703 386.372C126.05 387.731 122.923 384.462 122.929 384.438C123.576 384.601 126.566 382.209 126.737 381.334C126.828 380.857 124.957 379.428 125.038 379.209C127.033 373.993 130.045 369.908 134.472 366.805C134.57 366.77 136.382 368.669 136.589 368.563C139.477 367.197 138.452 363.613 138.79 360.487C139.137 357.352 140.955 356.362 145.212 358.413C146.076 356.68 149.372 356.102 151.324 355.803C153.275 355.505 149.738 351.823 149.76 351.654C150.311 346.401 154.11 346.653 157.53 343.745C157.586 343.698 157.643 343.648 157.701 343.596C159.274 342.18 161.482 338.861 162.625 336.9C163.544 335.298 165.194 335.311 165.759 333.625C165.839 333.395 164.05 331.977 164.034 331.868C163.344 328.671 166.731 333.158 167.705 333.576C171.248 335.1 173.213 335.83 173.632 332.957C173.731 332.297 169.094 325.593 169.455 324.548C169.932 323.204 171.662 325.537 172.093 324.095C172.131 323.974 170.845 322.76 171.475 322.223C174.373 319.723 178.085 317.382 180.751 314.392C181.118 313.991 178.624 312.533 179.121 311.92C181.451 309.054 184.397 306.186 187.87 304.513C188.725 304.114 189.741 305.883 190.292 306.154C193.635 307.78 191.145 302.998 191.269 302.732C194.153 296.268 200.996 295.92 204.166 289.551C204.329 289.2 202.419 283.309 206.647 285.733C206.93 285.891 211.234 288.393 209.659 285.295C209.56 285.102 207.248 283.911 208.379 283.125C209.509 282.339 209.863 279.62 213.119 280.204C214.144 280.388 218.558 282.763 217.064 278.82C216.953 278.552 212.691 270.533 217.626 274.049C218.436 274.63 222.819 279.199 221.989 275.424C221.824 274.696 220.308 274.222 220.425 272.85C220.6 270.742 223.319 270.405 222.726 266.998C222.619 266.396 220.601 262.33 223.75 263.785C224.243 264.013 225.496 265.751 226.103 265.474C229 264.163 230.195 260.953 233.371 259.83C234.493 259.43 236.532 262.224 237.966 262.079C239.399 261.936 241.603 260.967 241.319 259.039C241.035 257.11 236.275 254.175 237.2 252.628C241.241 245.883 248.808 242.817 254.514 237.764C255.359 237.017 253.321 236.301 254.467 235.101C258.688 230.669 264.877 221.904 271.561 221.084C276.916 220.426 274.907 225.994 278.161 224.654C279.726 224.002 276.459 218.322 276.587 217.914C277.778 213.868 281.578 214.04 283.329 211.083C283.69 210.472 281.403 209.129 281.73 208.629C282.835 206.902 285.133 206.23 286.339 204.735C286.876 204.06 285.383 202.782 286.049 202.333C287.625 201.244 289.388 200.652 291.985 200.661C292.222 200.661 293.14 203.185 294.192 202.268C295.895 200.772 299.163 200.079 299.689 196.922C299.839 195.979 296.706 192.78 300.06 193.808C300.761 194.022 304.234 198.151 302.33 193.495C302.014 192.721 299.905 185.986 303.883 187.73C304.93 188.189 308.79 190.558 308.962 189.414C308.974 189.247 306.922 187.894 307.303 187.186C308.675 184.72 310.863 182.914 312.309 180.422C312.694 179.751 310.154 178.764 310.783 177.82C312.512 175.223 315.661 172.998 318.318 171.465C319.301 170.904 320.214 172.901 320.428 173.005C323.904 174.7 320.977 170.667 321.081 170.16C321.766 167.064 324.832 167.287 326.138 165.136C326.503 164.547 324.512 163.212 324.461 162.968C324.011 160.535 326.239 164.264 327.192 163.976C329.867 163.184 331.688 161.121 333.264 159.143C333.839 158.416 331.19 157.204 331.728 156.574C334.874 152.81 338.636 149.465 343.097 147.178C343.937 146.754 345.007 148.643 345.477 148.853C348.745 150.337 346.875 145.763 346.877 145.15C346.883 142.353 348.708 143.159 349.723 141.673C354.6 134.452 362.93 127.986 369.192 122.901C377.346 116.263 384.471 112.071 391.302 104.656C391.732 104.192 389.326 102.644 389.671 102.219C394.225 96.8186 399.917 92.7762 404.47 87.2005C404.841 86.7522 402.396 85.4434 402.929 84.6607C404.018 83.0347 405.787 81.5074 407.806 80.7162C408.773 80.3411 409.444 82.8581 410.384 82.4479C412.575 81.4977 414.395 79.9841 415.694 78.1244C416.242 77.3294 413.33 76.3912 414.189 75.5095C420.22 69.2505 425.749 63.2135 434.477 59.6089C435.065 59.3725 439.268 62.9535 439.414 61.3407C438.417 60.1825 437.162 58.8994 436.054 57.7022C436.205 57.5327 436.356 57.3643 436.507 57.197C444.731 48.1373 454.77 40.9604 463.723 32.7134C464.099 32.3667 461.441 30.8846 462.157 30.2041C466.498 26.0721 470.043 21.5362 476.41 19.4405C477.047 19.2213 480.38 23.1246 481.119 21.3432C481.239 21.0322 482.679 18.7075 482.431 17.4062C482.383 17.22 480.377 15.8286 480.954 15.1812C484.317 11.4649 488.518 8.22299 493.197 5.83273C493.941 5.46452 495.069 7.89868 495.611 7.65559C499.536 5.83199 501.493 1.35429 506.287 0.205852C509.58 -0.597184 511.62 3.46352 515.632 5.76381C516.139 6.11748 518.02 4.80488 519.669 6.78261C523.134 12.0921 526.753 18.0228 530.667 23.5362C530.855 23.8466 530.94 24.0079 530.701 24.2895C530.507 24.513 529.963 25.0351 527.962 25.8295C527.387 26.0438 526.762 26.2307 526.198 26.3725C525.52 26.5368 524.904 26.6403 524.5 26.7184C523.601 26.8711 523.613 26.9854 523.62 27.1756C523.626 27.2682 523.616 27.3728 523.62 27.4913C523.632 27.6092 523.653 27.7443 523.964 27.886C524.458 28.1937 526.955 28.3764 529.077 28.0688C529.27 28.0813 530.766 27.6169 531.43 27.4268C531.636 27.3651 531.836 27.3044 532.022 27.2501C532.179 27.2127 532.314 27.1884 532.448 27.1655C532.713 27.1211 532.942 27.1009 533.092 27.1413C533.751 27.2551 533.934 27.8419 534.285 28.3297C534.74 29.022 536.428 30.9558 536.979 31.8676C537.522 32.7851 535.889 31.3435 536.169 32.7407C536.493 34.1236 538.645 36.1116 537.769 37.3517ZM160.007 354.521C162.762 355.185 156.426 348.827 156.909 351.427C156.941 351.561 159.869 354.491 160.007 354.521ZM46.3513 484.989C50.6075 485.961 46.8331 481.343 43.5962 480.521C40.3621 479.703 45.0585 484.698 46.3513 484.989ZM36.8897 502.247C40.7115 502.334 30.7071 494.465 31.3557 497.905C31.3898 498.103 36.6675 502.242 36.8897 502.247ZM511.322 11.1732C511.398 11.2648 512.38 10.5325 512.318 10.43C510.887 7.88213 508.943 9.32956 511.322 11.1732ZM28.1092 519.628C29.9077 520.07 29.4325 517.327 27.2038 516.761C25.4141 516.3 25.8701 519.078 28.1092 519.628ZM218.668 307.895C218.779 307.972 219.444 307.468 218.894 306.95C217.119 305.282 216.803 306.584 218.668 307.895ZM10.1591 547.083C13.0547 543.091 23.4987 546.199 19.8585 549.932C19.1958 550.624 18.0106 546.49 16.5875 547.024C13.9758 548.027 18.946 552.611 14.7616 552.775C13.9969 552.802 9.96988 547.303 10.1508 547.068C10.1536 547.073 10.1563 547.078 10.1591 547.083ZM168.36 361.38C168.465 361.441 169.338 360.693 169.272 360.591C167.644 358.173 165.883 359.682 168.36 361.38ZM256.462 277.574C256.686 277.708 258.717 276 258.614 275.774C256.284 271.511 252.164 274.956 256.462 277.574ZM120.765 421.984C122.055 424.829 121.323 426.141 118.001 424.45C118.955 423.679 119.802 422.785 120.765 421.984Z" fill="currentColor"/>
</g>
<g filter="url(#filter1_d_44_90)">
<path d="M36.6124 5.76403C41.1468 8.49162 44.7457 12.9096 47.1092 16.6455C47.8148 17.7815 46.2535 18.504 46.7043 19.3539C47.6626 21.0864 49.2802 21.5314 50.1264 23.3382C50.3567 23.9008 48.1285 25.2628 48.41 25.8112C50.0148 28.8517 52.7733 30.5918 54.7446 33.2226C64.7208 46.4568 75.2472 58.1769 86.0777 70.5567C89.5954 74.5843 92.6201 80.8313 97.2691 84.0691C97.8032 84.4352 99.0989 82.604 99.3134 82.5608C102.636 81.9394 99.0303 84.6455 99.4999 85.9549C100.075 87.5437 100.845 89.0448 101.761 90.4557C101.796 90.485 101.886 90.5874 101.92 90.6173C103.786 93.6866 106.51 96.3923 109.236 98.3684C110.903 99.5666 112.658 95.0585 112.3 98.24C112.279 98.458 110.229 99.7145 110.436 100.29C110.906 101.591 112.897 103.054 113.462 103.91C114.552 105.578 114.754 105.753 115.972 107.059C117.614 108.849 118.82 111.788 121.063 113.356C121.533 113.671 122.761 111.475 123.668 111.829C124.574 112.181 126.062 114.025 126.209 114.998C126.355 115.97 124.754 117.034 124.54 117.437C122.706 120.812 128.292 119.311 128.634 119.487C134.588 122.608 136.425 128.696 140.572 133.013C143.801 136.365 147.843 139.208 150.797 142.481C154.349 146.43 156.357 150.415 160.079 153.98C160.468 154.356 162.074 151.942 162.553 152.398C167.54 157.133 172.136 162.383 175.504 168.669C175.844 169.305 173.429 170.376 173.662 171.114C175.152 175.627 176.188 183.808 185.764 178.168C187.457 180.55 189.542 183.362 189.734 186.718C189.862 188.883 186.796 189.592 189.035 190.264C189.539 190.417 190.839 188.348 191.464 188.702C194.093 190.195 195.747 193.04 198.594 194.245C199.179 194.489 200.605 192.906 200.995 192.761C204.19 191.619 202.086 196.828 202.165 197.45C202.817 202.145 205.547 203.421 207.958 206.039C208.518 206.649 209.903 203.969 210.516 204.486C213.665 207.187 216.474 210.478 218.344 214.264C218.757 215.113 216.429 216.195 216.537 216.687C217.034 218.836 220.642 215.967 221.185 217.97C221.304 218.388 219.651 219.67 219.534 219.878C217.701 223.151 222.033 220.327 222.31 220.454C225.895 221.983 223.619 227.279 226.547 229.251C226.9 229.483 228.16 226.991 229.038 227.755C234.913 232.842 240.019 239.221 243.786 246.198C244.373 247.279 242.359 248.035 242.235 248.258C240.326 251.772 244.557 248.811 244.964 248.957C248.076 250.206 246.961 255.229 252.787 252.522C260.215 263.323 271.591 270.251 276.55 283.278C276.618 283.439 274.603 284.97 274.745 285.284C276.434 289.079 278.739 285.84 283.981 284.401C285.3 284.041 282.518 289.472 282.335 289.891C281.655 291.433 278.499 293.545 278.43 293.909C277.951 296.83 286.668 288.053 288.327 289.774C288.364 289.842 286.506 291.193 286.481 291.494C286.401 292.436 287.481 292.254 287.338 293.237C286.997 295.497 283.011 300.022 287.018 299.143C287.533 299.024 292.302 293.863 293.548 295.636C294.041 296.348 296.742 298.982 297.145 300.057C297.548 301.13 295.418 302.177 295.399 302.299C295.213 306.415 293.574 306.499 291.37 310.591C289.188 314.681 296.488 307.102 297.738 306.708C298.987 306.318 298.661 309.536 298.399 310.5C298.137 311.464 296.659 312 296.626 312.665C296.439 317.043 301.306 310 303.198 309.559C307.671 308.507 303.316 315.226 304.253 317.298C304.51 317.863 305.458 316.287 305.939 316.546C307.826 317.59 306.933 320.17 310.159 320.3C310.686 320.323 315.368 318.424 313.736 321.687C313.498 322.156 311.76 323.153 312.051 324.082C312.482 325.469 313.804 327.451 315.256 328.019C316.325 328.434 317.8 325.352 317.994 326.985C318.078 327.712 315.982 328.238 316.253 329.495C316.521 330.748 318.504 332.683 319.279 333.392C320.056 334.1 321.403 332 321.58 331.947C322.611 331.665 324.847 332.293 324.968 332.422C331.455 338.707 334.295 347.525 341.329 352.829C341.876 353.245 343.399 351.137 343.501 351.182C345.921 352.134 339.734 355.537 339.252 358.314C342.815 354.521 342.822 355.88 344.39 356.677C345.149 357.057 346.288 355.342 346.487 355.251C349.507 353.973 347.248 357.314 346.817 358.029C345.232 360.661 348.342 358.824 347.287 360.589C346.243 362.343 343.298 363.505 344.425 364.611C346.068 363.631 348.738 359.403 350.137 359.712C355.464 360.916 358.608 369.612 360.922 372.55C363.206 375.458 364.267 376.052 365.261 378.032C367.038 381.589 368.677 378.105 371.53 378.66C374.395 379.227 367.232 384.598 366.11 386.181C364.985 387.757 366.647 386.648 366.192 387.683C365.736 388.716 364.174 388.975 364.583 389.955C364.994 390.937 369.289 390.472 370.954 389.319C374.016 387.202 376.177 383.94 377.14 385.027C377.292 385.198 377.418 385.471 377.516 385.864C377.557 386.038 375.544 387.319 375.784 387.901C377.77 392.49 380.88 395.812 383.028 400.256C383.311 400.86 381.067 402.282 381.211 402.654C382.697 406.526 384.859 402.483 389.767 400.532C384.85 404.764 382.775 408.299 384.83 410.432C386.044 411.697 387.841 409.493 390.049 408.892C390.713 408.71 390.195 410.945 391.295 410.167C394.894 407.625 397.55 403.394 398.238 406.841C398.263 406.997 396.286 408.381 396.496 408.798C397.855 411.508 401.376 408.603 403.974 410.436C405.996 411.859 407.139 416.935 408.807 419.244C403.617 424.344 406.662 425.036 410.954 422.232C412.098 423.667 413.722 424.888 414.471 426.615C414.731 427.209 412.963 428.42 412.856 428.635C411.161 431.988 415.161 429.083 415.571 429.221C419.919 430.928 419.745 435.968 425.201 436.283C425.396 436.293 429.121 432.867 427.301 436.258C427.172 436.489 424.597 437.176 425.836 438.652C427.068 440.121 427.716 444.567 431.274 444.782C432.129 444.832 436.158 443.039 434.825 446.224C434.642 446.654 433.493 447.558 433.104 448.306C431.878 450.704 435.789 447.384 433.436 451.155C431.086 454.928 430.247 458.657 434.226 458.357C434.34 458.347 437.639 455.909 438.204 456.549C439.107 457.578 439.888 459.516 440.901 460.464C441.388 460.917 442.835 458.817 442.95 458.864C447.203 461.032 447.912 464.837 450.756 468.925C451.26 469.665 455.474 468.959 454.852 472.116C454.165 475.566 444.226 483.144 449.398 484.016C451.519 484.414 463.877 474.558 460.591 482.624C466.377 485.337 467.707 492.285 474.134 494.345C474.425 494.442 478.042 491.837 478.473 492.319C479.108 493.04 478.101 494.892 478.506 495.451C480.23 497.887 483.305 498.346 485.185 500.44C485.891 501.222 484.194 502.532 485.032 503.46C485.872 504.387 488.387 502.918 488.73 505.049C488.977 506.66 486.109 511.738 486.934 513.382C490.756 509.278 491.529 510.136 494.074 510.442C494.565 510.499 495.554 508.762 495.854 508.714C497.102 508.487 496.546 510.165 497.82 509.839C498.128 509.763 499.417 508.346 499.74 508.203C502.527 506.919 501.176 511.498 500.931 512.286C500.026 515.302 502.139 513.851 502.165 515.381C502.185 516.905 500.1 516.92 500.544 518.231C501.457 520.939 504.056 522.843 505.877 524.581C506.619 525.271 507.801 522.902 507.947 522.956C509.94 523.861 509.702 527.284 513.949 524.244C506.302 535.059 515.729 524.115 516.216 528.064C516.25 528.379 512.351 533.243 511.069 533.329C509.785 533.413 510.057 531.055 508.174 531.291C507.732 531.346 502.585 534.58 502.178 534.691C498.989 535.554 504.972 528.424 505.241 527.979C508.089 523.132 502.362 526.45 501.667 526.412C498.47 526.23 497.765 523.845 495.25 523.499C493.606 523.259 489.449 527.717 488.771 526.857C486.496 523.984 491.296 516.864 483.825 520.045C482.236 520.726 478.299 526.149 479.892 520.521C479.997 520.171 481.766 515.303 478.92 516.81C478.56 516.999 477.256 518.437 477.01 518.433C475.387 518.381 475.818 516.68 474.31 516.305C472.818 515.943 470.886 515.67 470.183 514.128C469.749 513.194 471.343 509.744 471.617 508.792C472.432 506.074 468.6 508.227 470.121 505.425C471.655 502.614 475.968 500.182 475.847 497.336C472.363 500.983 468.716 504.662 465.178 508.298C461.998 505.106 459.828 500.846 456.426 497.952C455.994 497.59 454.555 499.959 454.043 499.622C451.856 498.154 451.645 495.295 449.172 494.011C447.264 493.038 443.71 493.619 441.639 492.643C444.656 487.546 441.083 486.841 439.757 484.837C439.295 484.141 440.4 483.065 440.345 482.314C440.103 479.502 437.284 483.867 436.306 484.04C432.117 484.762 439.931 476.26 437.61 474.415C437.493 474.317 431.837 477.407 431.376 477.495C428.42 478.11 432.666 475.762 432.219 474.696C431.389 472.734 431.467 470.761 428.597 470.483C427.754 470.408 423.937 472.045 425.075 469.009C425.223 468.612 426.712 467.222 426.696 467.041C426.33 463.908 421.833 468.449 419.314 469.012C416.799 469.579 418.315 464.887 418.884 463.663C420.35 460.494 420.51 463.29 420.781 463.103C424.009 460.888 422.373 460.21 421.764 459.158C426.033 454.567 424.58 453.668 421.101 458.07C420.723 458.554 421.795 458.787 421.764 459.158C416.713 462.815 414.845 462.083 417.403 456.538C418.607 453.944 421.444 452.333 418.566 451.108C417.275 450.563 414.603 453.987 412.953 454.011C409.189 454.066 409.496 448.705 407.143 447.263C406.276 446.726 405.299 449.084 404.648 448.775C402.918 447.96 403.006 445.548 401.077 444.908C400.902 444.854 399.438 446.885 399.021 446.515C395.842 443.754 394.221 439.896 391.153 436.76C389.648 435.225 385.903 433.397 384.559 431.656C382.16 428.591 381.326 422.644 378.399 420.928C376.479 419.782 375.053 421.857 373.198 422.377C369.58 423.364 371.565 417.047 371.909 416.106C371.922 416.077 373.628 416.975 373.843 415.386C375.325 413.122 371.932 416.113 371.909 416.106C372.135 415.502 369.93 412.467 369.067 412.264C368.599 412.157 367.088 413.962 366.876 413.875C362.375 411.977 358.884 409.387 356.128 405.634C355.817 405.205 355.518 404.762 355.232 404.303C355.204 404.208 357.168 402.467 357.08 402.265C355.895 399.392 352.297 400.299 349.241 399.897C346.166 399.474 345.322 397.699 347.55 393.541C345.888 392.65 345.491 389.397 345.301 387.473C345.111 385.55 341.309 388.959 341.144 388.934C335.976 388.256 336.437 384.545 333.766 381.149C332.475 379.5 329.206 377.198 327.268 376.004C325.738 375.074 325.865 373.489 324.196 372.867C323.971 372.782 322.495 374.522 322.386 374.535C319.183 375.137 323.769 371.89 324.222 370.933C325.874 367.456 326.699 365.548 323.898 365.097C323.255 364.992 316.451 369.46 315.446 369.095C314.15 368.611 316.537 366.955 315.126 366.497C315.007 366.456 313.754 367.703 313.246 367.067C310.841 364.098 308.814 360.525 305.961 357.831C305.578 357.46 304.038 359.901 303.451 359.397C300.677 357.007 298.053 354.143 296.552 350.698C296.19 349.846 297.979 348.872 298.268 348.332C300.005 345.053 295.18 347.434 294.921 347.307C288.693 344.402 288.617 337.642 282.489 334.465C282.151 334.3 276.296 336.143 278.841 331.992C279.009 331.715 281.642 327.499 278.524 329.013C278.329 329.108 277.066 331.374 276.333 330.249C275.603 329.127 272.922 328.732 273.645 325.55C273.868 324.543 276.399 320.237 272.454 321.667C272.184 321.773 264.11 325.883 267.767 321.057C268.37 320.264 273.043 315.993 269.289 316.77C268.564 316.925 268.038 318.415 266.69 318.284C264.614 318.086 264.399 315.416 261.03 315.979C260.437 316.083 256.347 318.027 257.9 314.938C258.144 314.454 259.904 313.237 259.654 312.635C258.473 309.769 255.342 308.55 254.373 305.431C254.025 304.327 256.856 302.343 256.767 300.929C256.678 299.515 255.803 297.333 253.892 297.596C251.98 297.859 248.911 302.524 247.419 301.599C240.934 297.576 238.183 290.094 233.418 284.449C232.712 283.611 231.932 285.614 230.791 284.476C226.577 280.291 218.159 274.144 217.588 267.564C217.126 262.288 222.546 264.298 221.335 261.084C220.746 259.538 215.035 262.725 214.637 262.597C210.69 261.402 210.993 257.664 208.14 255.928C207.548 255.568 206.149 257.816 205.666 257.49C204 256.393 203.416 254.127 201.983 252.932C201.336 252.401 200.026 253.866 199.607 253.209C198.587 251.652 198.064 249.915 198.161 247.36C198.17 247.127 200.687 246.232 199.819 245.194C198.399 243.508 197.823 240.285 194.728 239.757C193.805 239.606 190.548 242.68 191.673 239.381C191.907 238.692 196.089 235.285 191.44 237.146C190.666 237.455 183.964 239.513 185.809 235.599C186.295 234.569 188.754 230.774 187.632 230.601C187.468 230.589 186.068 232.605 185.382 232.228C182.997 230.87 181.283 228.707 178.882 227.286C178.232 226.905 177.18 229.405 176.269 228.782C173.761 227.069 171.666 223.963 170.24 221.344C169.718 220.376 171.715 219.481 171.824 219.27C173.603 215.85 169.537 218.726 169.046 218.627C166.018 217.949 166.327 214.925 164.247 213.635C163.677 213.275 162.3 215.233 162.059 215.284C159.647 215.723 163.39 213.534 163.136 212.596C162.431 209.953 160.478 208.184 158.564 206.618C157.864 206.05 156.59 208.658 155.985 208.127C152.355 205.01 149.209 201.343 147.066 196.93C146.672 196.102 148.566 195.048 148.787 194.586C150.344 191.366 145.779 193.206 145.174 193.204C142.42 193.201 143.251 191.387 141.844 190.417C134.853 185.601 128.709 177.403 123.898 171.281C117.55 163.237 113.616 156.246 106.495 149.569C106.048 149.146 104.463 151.524 104.052 151.185C98.8954 146.779 95.01 141.157 89.6274 136.719C89.1934 136.355 87.8481 138.772 87.0881 138.252C85.5041 137.184 84.0585 135.473 83.3316 133.499C82.9812 132.548 85.4798 131.872 85.094 130.947C84.2008 128.791 82.7473 127.01 80.9461 125.751C80.1762 125.22 79.1866 128.092 78.3387 127.256C75.9179 124.9 73.465 122.559 71.304 120.172L71.6295 120.503C68.1806 116.83 65.3355 113.021 63.2423 107.988C63.0114 107.418 66.5415 103.174 64.955 103.08C63.8142 104.097 62.5503 105.372 61.3712 106.499C52.3083 98.7014 45.0804 88.8522 36.7876 80.3222C36.4445 79.97 35.0131 82.6447 34.3406 81.9755C30.2699 77.9335 25.8219 74.7345 23.699 68.6767C23.475 68.0689 27.2289 64.5682 25.4737 63.9587C25.1597 63.8528 22.8919 62.6291 21.622 62.9565C21.4418 63.0166 20.1263 65.0669 19.4861 64.5533C15.8298 61.5725 12.6266 57.8069 10.2525 53.6541C9.88317 52.9907 12.1667 51.627 11.9192 51.139C10.1007 47.6486 5.75409 46.3688 5.01201 42.8102C4.60737 40.5118 7.83813 37.448 9.59893 33.3722C9.73592 33.0945 9.58167 32.7741 9.6709 32.3417C9.72692 31.8891 10.084 31.3429 10.6298 30.2047C13.0284 24.3091 17.4128 18.7639 20.0588 12.518C20.2017 11.8342 19.2647 11.0568 15.8847 9.93895C14.2144 9.40031 12.1928 9.18432 12.0336 8.82441C11.9179 8.64217 12.0881 8.39473 12.8642 8.12984C13.6932 7.87384 15.0143 7.61976 16.7675 7.60516C16.949 7.58925 17.9922 7.73252 19.1211 7.99005C20.0851 8.17644 21.1917 8.46799 21.9689 8.61349C23.6204 8.9548 24.7518 9.01444 25.4189 8.73284C26.3605 8.36793 26.8745 5.6255 28.4996 5.44556C29.2233 5.30038 29.5353 5.85545 29.8549 6.39889C30.1134 6.89721 30.4983 7.46954 31.3664 7.3561C33.1042 7.12065 34.5578 4.53394 36.6124 5.76403ZM344.469 378.892C345.262 376.195 338.691 382.309 341.271 381.881C341.403 381.853 344.433 379.027 344.469 378.892ZM464.513 495.954C465.862 491.796 461.021 495.232 459.845 498.32C458.684 501.417 464.105 497.216 464.513 495.954ZM480.28 506.63C480.833 502.902 471.971 512.039 475.392 511.688C475.588 511.67 480.248 506.847 480.28 506.63ZM14.5535 35.7509C14.5845 35.699 14.4263 35.4867 14.2473 35.297C14.0455 35.0878 13.8363 34.9131 13.7887 34.9502C11.5359 36.7773 12.9698 38.2912 14.5535 35.7509ZM496.194 516.832C496.855 515.112 494.099 515.304 493.282 517.448C492.628 519.177 495.376 518.976 496.194 516.832ZM301.14 320.38C301.219 320.27 300.752 319.611 300.219 320.148C298.502 321.874 299.773 322.203 301.14 320.38ZM519.933 537.727C516.748 534.278 521.585 524.527 524.608 528.777C525.156 529.547 520.904 529.979 521.155 531.464C521.619 534.176 527.053 530.169 526.355 534.269C526.224 535.016 520.1 537.941 519.918 537.732C519.923 537.73 519.928 537.728 519.933 537.727ZM351.636 370.804C351.702 370.701 351.009 369.829 350.906 369.892C348.446 371.449 349.841 373.208 351.636 370.804ZM272.727 282.839C272.867 282.62 271.255 280.599 271.028 280.699C266.738 282.957 269.988 287.052 272.727 282.839ZM408.701 419.412C411.582 418.242 412.829 419.012 410.952 422.226C410.253 421.256 409.427 420.39 408.701 419.412Z" fill="currentColor"/>
</g>
<defs>
<filter id="filter0_d_44_90" x="6.1449" y="0.102295" width="535.832" height="560.672" filterUnits="userSpaceOnUse" color-interpolation-filters="sRGB">
<feFlood flood-opacity="0" result="BackgroundImageFix"/>
<feColorMatrix in="SourceAlpha" type="matrix" values="0 0 0 0 0 0 0 0 0 0 0 0 0 0 0 0 0 0 127 0" result="hardAlpha"/>
<feOffset dy="4"/>
<feGaussianBlur stdDeviation="2"/>
<feComposite in2="hardAlpha" operator="out"/>
<feColorMatrix type="matrix" values="0 0 0 0 0 0 0 0 0 0 0 0 0 0 0 0 0 0 0.25 0"/>
<feBlend mode="normal" in2="BackgroundImageFix" result="effect1_dropShadow_44_90"/>
<feBlend mode="normal" in="SourceGraphic" in2="effect1_dropShadow_44_90" result="shape"/>
</filter>
<filter id="filter1_d_44_90" x="0.977295" y="5.42212" width="529.44" height="540.321" filterUnits="userSpaceOnUse" color-interpolation-filters="sRGB">
<feFlood flood-opacity="0" result="BackgroundImageFix"/>
<feColorMatrix in="SourceAlpha" type="matrix" values="0 0 0 0 0 0 0 0 0 0 0 0 0 0 0 0 0 0 127 0" result="hardAlpha"/>
<feOffset dy="4"/>
<feGaussianBlur stdDeviation="2"/>
<feComposite in2="hardAlpha" operator="out"/>
<feColorMatrix type="matrix" values="0 0 0 0 0 0 0 0 0 0 0 0 0 0 0 0 0 0 0.25 0"/>
<feBlend mode="normal" in2="BackgroundImageFix" result="effect1_dropShadow_44_90"/>
<feBlend mode="normal" in="SourceGraphic" in2="effect1_dropShadow_44_90" result="shape"/>
</filter>
</defs>
</svg>
