<svg viewBox="0 0 150 50" fill="none" xmlns="http://www.w3.org/2000/svg">
<path d="M18.0617 34.9708L17.0363 34.2116L14.9433 32.6625L10.792 32.6088C9.45544 32.5951 8.42104 32.5797 7.62485 32.5428C6.83583 32.5062 6.24521 32.4472 5.81343 32.336C5.37605 32.2234 5.01775 32.0357 4.80622 31.6792C4.6134 31.354 4.59944 30.9704 4.59943 30.6414C4.59943 30.4189 4.67008 30.1141 4.75549 29.8314C4.84506 29.5349 4.96912 29.204 5.10972 28.9056C5.37352 28.3263 5.4923 27.9127 5.50418 27.4149C5.51347 27.0252 5.45757 26.5671 5.32706 25.9232L5.171 25.2138C5.06681 24.772 4.97205 24.3191 4.90293 23.9433C4.83745 23.5873 4.78525 23.2509 4.78516 23.073C4.78516 22.9129 4.77344 22.5354 5.08962 22.2956C5.22219 22.1951 5.37277 22.1496 5.49365 22.1232C5.61927 22.0959 5.76917 22.0783 5.9331 22.0611C7.37243 21.896 8.64538 21.7233 9.65361 21.5593C10.6762 21.393 11.3909 21.2406 11.736 21.1189L11.7398 21.1171C12.2064 20.9566 13.4132 20.3225 14.4397 19.701C15.8837 18.8088 17.041 18.1311 17.9984 17.6186C17.0685 17.7634 16.1104 17.9238 15.4249 18.0572H15.4229C13.3311 18.4546 9.78483 19.3206 7.76942 19.9366L7.76368 19.9384C7.4046 20.0433 7.06627 20.1353 6.81009 20.1979C6.6831 20.2289 6.56957 20.2545 6.4817 20.2707C6.43942 20.2784 6.39208 20.2859 6.34766 20.2898C6.32677 20.2917 6.29232 20.2938 6.25288 20.2918C6.23318 20.2907 6.20041 20.2879 6.16193 20.2793C6.13809 20.2739 6.08848 20.2613 6.03171 20.2305L5.97331 20.1931C5.84735 20.0999 5.75064 19.9403 5.76077 19.7451C5.76882 19.5921 5.84025 19.484 5.8747 19.4377C5.94742 19.34 6.04715 19.2655 6.11597 19.2176C6.2713 19.1093 6.49794 18.9841 6.76318 18.8518C7.30256 18.5827 8.0832 18.2413 8.98056 17.8762C10.5528 17.2365 12.5142 16.5126 14.2291 15.9632L14.9472 15.7392C18.1009 14.7872 22.161 13.9088 25.1579 13.5152L25.742 13.4424C27.4269 13.2463 33.7882 12.9015 37.633 12.8048C39.392 12.7632 47.456 12.6661 55.5511 12.597C76.1563 12.4174 89.7962 12.2098 92.8405 12.0312C95.956 11.8527 98.6851 11.4827 100.791 10.9541C101.75 10.7146 103.447 10.1289 104.881 9.56774C98.7142 10.1284 90.146 10.5284 76.5578 10.8842C74.3758 10.9394 71.9409 11.0079 69.7774 11.0719L64.6197 11.2288C61.5862 11.3256 58.2913 11.4091 55.7703 11.4558C54.5104 11.4791 53.4417 11.4936 52.6951 11.496C52.323 11.4972 52.0261 11.4955 51.8248 11.4902C51.7266 11.4877 51.6402 11.4836 51.5769 11.4778C51.5528 11.4756 51.5003 11.4705 51.4477 11.4568C51.4322 11.4527 51.4061 11.4455 51.3758 11.4327C51.3529 11.4231 51.2878 11.3945 51.2235 11.3332C51.1518 11.2646 51.0371 11.1052 51.08 10.8832C51.109 10.7332 51.1971 10.6428 51.2466 10.6008V10.5998C51.2483 10.5983 51.2505 10.5975 51.2523 10.596C51.2603 10.5895 51.2665 10.5834 51.2715 10.5797L51.2725 10.5827C51.3149 10.5506 51.3577 10.5234 51.3748 10.5136C51.4098 10.4938 51.4531 10.4708 51.5012 10.4457C51.5983 10.395 51.7299 10.3289 51.8899 10.2504C52.2111 10.0927 52.657 9.87971 53.1921 9.62806C54.263 9.12438 55.698 8.46301 57.2208 7.77834C60.5944 6.25229 65.474 4.47315 67.9965 3.86921C72.0408 2.88992 76.0574 2.51543 82.2352 2.51543C87.3299 2.51544 91.0403 2.71707 95.4657 3.25072L97.413 3.49965C105.753 4.63727 114.855 6.9393 123.355 10.0579L123.357 10.0589C124.049 10.315 124.7 10.5609 125.187 10.7501C125.431 10.8446 125.636 10.9261 125.786 10.9876C125.861 11.0181 125.926 11.0451 125.975 11.0671C125.999 11.0778 126.024 11.0888 126.045 11.0996C126.057 11.1051 126.102 11.1276 126.146 11.1599C126.189 11.1916 126.297 11.2828 126.334 11.45C126.378 11.6444 126.296 11.7969 126.23 11.8751C126.173 11.9438 126.11 11.9802 126.084 11.9938C126.054 12.0107 126.026 12.0214 126.009 12.0274C125.953 12.0474 125.896 12.0566 125.87 12.0609C125.8 12.0719 125.706 12.0817 125.6 12.0905C125.383 12.1087 125.067 12.1278 124.676 12.1461C123.894 12.1826 122.798 12.2172 121.574 12.2379C113.344 12.4131 109.308 13.0661 103.864 15.2615C107.803 14.8364 112.991 14.4092 116.261 14.2552L116.264 14.2543C117.973 14.1848 124.158 14.1164 130.015 14.1164H140.886L141.032 14.2782L141.555 14.8584C141.841 15.1768 142.705 16.0472 143.473 16.8096C144.053 17.3725 144.689 17.9882 145.078 18.3769L145.375 18.6794L145.823 19.162L145.952 19.3028L145.953 19.4932L145.972 23.5536L145.99 27.6284L145.991 27.8008L145.883 27.9357L145.212 28.7782C144.757 29.3584 143.756 30.2219 142.71 31.0128C141.787 31.7112 140.776 32.3932 139.988 32.8129L139.665 32.9765C138.832 33.3694 137.693 33.7819 136.522 34.133C137.615 34.0013 138.85 33.8057 139.838 33.5998L140.496 33.4514C142.704 32.911 144.55 32.0621 145.863 31.0607C147.182 30.0539 147.912 28.9354 148.016 27.8601L148.018 27.8467C148.074 27.3899 148.021 26.8034 147.875 26.1884L147.808 25.9232C147.526 24.8969 147.49 24.2423 147.585 22.6566C147.669 21.2454 147.637 20.4451 147.367 19.7116C147.094 18.9695 146.561 18.2469 145.505 17.0432C145.005 16.4732 144.358 15.6137 144.03 15.1293L144.026 15.1227C143.765 14.7212 143.568 14.4141 143.487 14.0293C143.412 13.6627 143.447 13.2531 143.501 12.6698V12.664L143.586 11.8426L143.003 11.7152C142.435 11.6033 140.924 11.3165 139.595 11.0843H139.593C134.093 10.1044 133.318 9.96432 131.833 9.64434L131.829 9.64338C130.953 9.44592 128.045 8.63949 125.38 7.85301H125.378C115.859 5.00848 111.545 3.94979 104.887 2.87638L103.523 2.66096C96.1992 1.53273 87.3099 0.940476 80.1001 1.09176C74.7108 1.21557 69.9506 1.7246 66.1487 2.58532L66.1468 2.58628L65.5216 2.73276C62.2267 3.54948 56.3689 5.59824 48.4758 8.66873L44.7639 10.1182L44.693 10.146L44.6175 10.1508L40.5877 10.4141C30.0068 11.0898 24.5893 11.8185 17.8558 13.4664C13.9376 14.4286 10.37 15.5755 7.63156 16.7053C6.26181 17.2704 5.10817 17.8274 4.22507 18.3511C3.4389 18.8173 2.90808 19.2336 2.61757 19.5766L2.50748 19.7192L2.5046 19.723L2.44237 19.8207C2.29366 20.0761 2.11575 20.5238 2.04313 20.8786V20.8815L1.99239 21.1582C1.89861 21.7959 1.98983 22.478 2.58215 25.2186L2.58311 25.2177L3.01204 27.1507L3.04075 27.2819L2.99958 27.4091L2.58885 28.6663C2.03044 30.448 2.19789 31.7539 2.91342 32.674C3.64649 33.6166 5.05066 34.2827 7.25529 34.5457C9.04298 34.7603 12.1642 34.9141 15.1865 34.9583L16.4714 34.9708H18.0617Z" fill="black" stroke="white" stroke-width="0.980392"/>
<path d="M32.6546 38.2958L36.5933 38.2767L36.6365 36.0526L36.6709 33.3641L36.6767 32.8845L37.1564 32.8807L43.0301 32.8251C48.2115 32.781 49.0305 32.7481 50.3064 32.5561C55.213 31.8015 57.6813 30.2986 58.6417 27.8944L58.6426 27.8935C58.8037 27.4925 58.9039 26.9397 58.926 26.3683C58.9481 25.7975 58.8888 25.2568 58.7671 24.8767C58.1719 23.1116 56.0354 21.5403 52.7076 20.7052L52.026 20.5482C49.7237 20.0647 49.0288 20.03 38.4086 19.9747L28.7464 19.9221V38.3159L32.6546 38.2958ZM36.6709 23.2797L37.1649 23.2845L42.0114 23.3285C45.6891 23.3615 47.0953 23.4154 47.867 23.5574C49.4784 23.854 50.6076 24.7498 50.8962 25.8781C51.1974 27.0571 50.5223 28.2156 49.0915 28.8547C47.7424 29.4581 46.5947 29.5374 41.6648 29.5374H36.6709V23.2797Z" fill="black" stroke="white" stroke-width="0.980392"/>
<path d="M62.8329 38.3178L71.3194 38.3064C76.2638 38.2953 80.9101 38.2624 81.6595 38.2192C84.9809 38.0337 87.9258 37.47 90.3069 36.6022C92.6939 35.7321 94.4793 34.5695 95.5333 33.2129L95.5353 33.211C95.9914 32.6302 96.2875 32.1574 96.4889 31.6609C96.6899 31.1654 96.8072 30.6206 96.8757 29.8839V29.8811C97.0345 28.2552 96.6804 26.7994 95.8465 25.5392C95.0086 24.2732 93.6676 23.1762 91.8129 22.3108L91.811 22.3099C89.4305 21.191 87.3829 20.6508 83.9659 20.2581L83.963 20.2572C82.1634 20.0408 81.2186 20.0189 72.1907 19.9747L62.8329 19.9221V38.3178ZM71.2045 34.5112L71.1509 29.118V29.1161L71.1155 23.723L71.1126 23.2223L71.6133 23.229L76.0127 23.295L76.0117 23.296C79.6761 23.3401 80.6918 23.3947 81.8912 23.5889C83.8965 23.9164 85.3392 24.4197 86.6591 25.2836L86.6629 25.2865C87.111 25.5861 87.431 25.8208 87.6893 26.0917C87.8879 26.3001 88.0397 26.5183 88.189 26.7791L88.3394 27.0548L88.3432 27.0625C88.7363 27.8488 88.8807 28.7771 88.8076 29.6532C88.7345 30.5271 88.4414 31.3934 87.9095 32.0391L87.9057 32.0429L87.7601 32.2028C87.3966 32.5743 86.8689 32.9407 86.2895 33.2608C85.6181 33.6318 84.8354 33.9633 84.0674 34.1837C81.8088 34.8318 80.1671 34.9855 75.6144 34.9966H71.2093L71.2045 34.5112Z" fill="black" stroke="white" stroke-width="0.980392"/>
<path d="M126.669 38.3178C127.995 38.3178 129.197 38.31 130.067 38.2948C130.12 38.2939 130.171 38.292 130.221 38.291C130.134 38.2208 130.045 38.1447 129.949 38.067C129.191 37.4521 128.145 36.6143 126.993 35.705C125.839 34.7935 124.789 33.9505 124.027 33.3277C123.646 33.0167 123.335 32.7584 123.119 32.5743C123.011 32.4829 122.924 32.407 122.861 32.3503C122.831 32.3227 122.801 32.2944 122.775 32.2689C122.765 32.2573 122.746 32.2372 122.727 32.2133C122.719 32.2022 122.7 32.179 122.682 32.1482C122.677 32.1402 122.642 32.0828 122.625 31.996L122.615 31.8993L122.624 31.8065C122.66 31.6033 122.806 31.4913 122.857 31.4561C122.934 31.4036 123.014 31.3744 123.068 31.3583C123.183 31.3245 123.315 31.3095 123.437 31.3095C123.421 31.3095 123.457 31.308 123.589 31.2799C123.701 31.256 123.848 31.2206 124.021 31.1755C124.366 31.0853 124.799 30.9608 125.228 30.8251C127.929 29.9719 129.664 28.545 130.15 27.0472L130.152 27.0424C130.278 26.6654 130.318 26.0697 130.255 25.4492C130.193 24.8257 130.037 24.2739 129.849 23.9681L129.847 23.9643C128.692 22.055 126.112 20.7599 121.819 20.1911C120.549 20.02 119.196 19.9859 109.881 19.9527L99.8412 19.9211V38.315L103.801 38.2843L107.769 38.2556V32.0813L108.261 32.0822L111.544 32.0936H114.995L115.134 32.2162L116.53 33.4523L116.529 33.4532C117.3 34.1276 118.889 35.5285 120.042 36.5552L122.018 38.3178H126.669ZM107.769 23.117L108.264 23.1218L113.555 23.1658L113.554 23.1668L118.829 23.1983L118.899 23.1993L118.967 23.2194L119.959 23.5172L119.96 23.5162C120.716 23.7377 121.313 24.0077 121.714 24.4296C122.138 24.8751 122.285 25.4254 122.285 26.062C122.285 26.6877 122.149 27.2279 121.729 27.6704C121.335 28.0863 120.743 28.3568 119.985 28.5933L119.982 28.5943L118.97 28.9035L118.901 28.9237L118.829 28.9246L113.554 28.9572L108.262 28.9907L107.769 28.9935V23.117Z" fill="black" stroke="white" stroke-width="0.980392"/>
<mask id="path-5-outside-1_8_11" maskUnits="userSpaceOnUse" x="17" y="32" width="121" height="17" fill="black">
<rect fill="white" x="17" y="32" width="121" height="17"/>
<path d="M24.9643 48.2549C24.4838 48.2549 24.0736 48.2197 23.7338 48.1494C23.3939 48.0791 23.0775 47.9648 22.7846 47.8066C22.4975 47.6484 22.1898 47.4434 21.8617 47.1914L21.5541 48H18.7152V43.7197H21.5365C21.7182 44.2119 21.9965 44.5605 22.3715 44.7656C22.7523 44.9648 23.2182 45.0645 23.7689 45.0645C24.1088 45.0645 24.3988 44.9971 24.6391 44.8623C24.8793 44.7217 24.9994 44.5371 24.9994 44.3086C24.9994 44.0215 24.8764 43.8076 24.6303 43.667C24.3842 43.5205 24.0385 43.3857 23.5932 43.2627C23.0248 43.1104 22.5092 42.9492 22.0463 42.7793C21.5893 42.6094 21.1791 42.4336 20.8158 42.252C20.0893 41.8887 19.5033 41.373 19.058 40.7051C18.6127 40.0371 18.39 39.1494 18.39 38.042C18.39 37.1924 18.5746 36.4424 18.9437 35.792C19.307 35.1475 19.8285 34.6465 20.5082 34.2891C21.1937 33.9258 21.9994 33.7441 22.9252 33.7441C24.0561 33.7441 24.9496 34.1045 25.6059 34.8252L26.0541 33.999H28.5766V38.1914H25.8783C25.6264 37.6641 25.348 37.2979 25.0434 37.0928C24.7387 36.8877 24.3197 36.7852 23.7865 36.7852C23.3822 36.7852 23.0687 36.8584 22.8461 37.0049C22.6234 37.1455 22.5121 37.3418 22.5121 37.5938C22.5121 37.875 22.6732 38.0889 22.9955 38.2354C23.3119 38.3877 23.7631 38.5283 24.349 38.6572C25.3744 38.8916 26.2592 39.1875 27.0033 39.5449C27.7299 39.9023 28.31 40.4092 28.7436 41.0654C29.183 41.7158 29.4027 42.5566 29.4027 43.5879C29.4027 44.4609 29.2211 45.252 28.8578 45.9609C28.4887 46.6699 27.9643 47.2295 27.2846 47.6396C26.6107 48.0498 25.8373 48.2549 24.9643 48.2549ZM48.2918 44.8359V48H40.4608V44.8359H41.9022V37.1104H40.6629L40.285 39.5186H37.8153V34.0166H50.9725V39.5186H48.5116L48.1336 37.1104H46.8504V44.8359H48.2918ZM66.8557 48.2549C64.7698 48.2549 63.2669 47.71 62.347 46.6201C61.4329 45.5244 60.9759 43.9189 60.9759 41.8037V37.1104H59.552V34.0166H67.1809V37.1104H65.8889V42.999C65.8889 43.5732 66.0296 44.0449 66.3108 44.4141C66.5921 44.7773 67.0345 44.959 67.638 44.959C68.1419 44.959 68.5403 44.8096 68.8333 44.5107C69.1262 44.2061 69.2727 43.7959 69.2727 43.2803V37.1104H67.8313V34.0166H73.5706V37.1104H72.2259V43.1572C72.2259 44.2764 72.0003 45.2168 71.5491 45.9785C71.1038 46.7344 70.4798 47.3027 69.677 47.6836C68.8743 48.0645 67.9339 48.2549 66.8557 48.2549ZM88.6452 48H82.1853V44.9062H83.5915V37.1104H82.1853V34.0166H88.6628C91.2058 34.0166 93.1511 34.6055 94.4987 35.7832C95.8523 36.9551 96.529 38.6924 96.529 40.9951C96.529 43.2393 95.8581 44.9678 94.5163 46.1807C93.1745 47.3936 91.2175 48 88.6452 48ZM88.0915 37.1104V44.9062H88.6452C89.3015 44.9062 89.8376 44.7393 90.2536 44.4053C90.6696 44.0654 90.9773 43.5996 91.1765 43.0078C91.3757 42.416 91.4753 41.7451 91.4753 40.9951C91.4753 39.8467 91.2527 38.9121 90.8073 38.1914C90.362 37.4707 89.6413 37.1104 88.6452 37.1104H88.0915ZM113.485 44.9062V48H106.181V44.9062H107.587V37.1104H106.181V34.0166H113.485V37.1104H112.087V44.9062H113.485ZM129.236 48.2549C127.777 48.2549 126.514 47.9414 125.448 47.3145C124.387 46.6875 123.579 45.8262 123.022 44.7305C122.471 43.6348 122.196 42.3838 122.196 40.9775C122.196 39.5186 122.471 38.2471 123.022 37.1631C123.573 36.0732 124.376 35.2324 125.43 34.6406C126.491 34.043 127.759 33.7441 129.236 33.7441C130.707 33.7441 131.972 34.04 133.033 34.6318C134.088 35.2295 134.89 36.0732 135.441 37.1631C135.998 38.2529 136.276 39.5244 136.276 40.9775C136.276 42.3838 136.001 43.6348 135.45 44.7305C134.899 45.8262 134.09 46.6875 133.024 47.3145C131.963 47.9414 130.701 48.2549 129.236 48.2549ZM129.236 45.1348C129.869 45.1348 130.352 44.751 130.686 43.9834C131.026 43.2158 131.196 42.1904 131.196 40.9072C131.196 39.6592 131.032 38.6719 130.704 37.9453C130.381 37.2188 129.892 36.8555 129.236 36.8555C128.574 36.8555 128.082 37.2188 127.759 37.9453C127.437 38.6719 127.276 39.6592 127.276 40.9072C127.276 42.1904 127.443 43.2158 127.777 43.9834C128.111 44.751 128.597 45.1348 129.236 45.1348Z"/>
</mask>
<path d="M24.9643 48.2549C24.4838 48.2549 24.0736 48.2197 23.7338 48.1494C23.3939 48.0791 23.0775 47.9648 22.7846 47.8066C22.4975 47.6484 22.1898 47.4434 21.8617 47.1914L21.5541 48H18.7152V43.7197H21.5365C21.7182 44.2119 21.9965 44.5605 22.3715 44.7656C22.7523 44.9648 23.2182 45.0645 23.7689 45.0645C24.1088 45.0645 24.3988 44.9971 24.6391 44.8623C24.8793 44.7217 24.9994 44.5371 24.9994 44.3086C24.9994 44.0215 24.8764 43.8076 24.6303 43.667C24.3842 43.5205 24.0385 43.3857 23.5932 43.2627C23.0248 43.1104 22.5092 42.9492 22.0463 42.7793C21.5893 42.6094 21.1791 42.4336 20.8158 42.252C20.0893 41.8887 19.5033 41.373 19.058 40.7051C18.6127 40.0371 18.39 39.1494 18.39 38.042C18.39 37.1924 18.5746 36.4424 18.9437 35.792C19.307 35.1475 19.8285 34.6465 20.5082 34.2891C21.1937 33.9258 21.9994 33.7441 22.9252 33.7441C24.0561 33.7441 24.9496 34.1045 25.6059 34.8252L26.0541 33.999H28.5766V38.1914H25.8783C25.6264 37.6641 25.348 37.2979 25.0434 37.0928C24.7387 36.8877 24.3197 36.7852 23.7865 36.7852C23.3822 36.7852 23.0687 36.8584 22.8461 37.0049C22.6234 37.1455 22.5121 37.3418 22.5121 37.5938C22.5121 37.875 22.6732 38.0889 22.9955 38.2354C23.3119 38.3877 23.7631 38.5283 24.349 38.6572C25.3744 38.8916 26.2592 39.1875 27.0033 39.5449C27.7299 39.9023 28.31 40.4092 28.7436 41.0654C29.183 41.7158 29.4027 42.5566 29.4027 43.5879C29.4027 44.4609 29.2211 45.252 28.8578 45.9609C28.4887 46.6699 27.9643 47.2295 27.2846 47.6396C26.6107 48.0498 25.8373 48.2549 24.9643 48.2549ZM48.2918 44.8359V48H40.4608V44.8359H41.9022V37.1104H40.6629L40.285 39.5186H37.8153V34.0166H50.9725V39.5186H48.5116L48.1336 37.1104H46.8504V44.8359H48.2918ZM66.8557 48.2549C64.7698 48.2549 63.2669 47.71 62.347 46.6201C61.4329 45.5244 60.9759 43.9189 60.9759 41.8037V37.1104H59.552V34.0166H67.1809V37.1104H65.8889V42.999C65.8889 43.5732 66.0296 44.0449 66.3108 44.4141C66.5921 44.7773 67.0345 44.959 67.638 44.959C68.1419 44.959 68.5403 44.8096 68.8333 44.5107C69.1262 44.2061 69.2727 43.7959 69.2727 43.2803V37.1104H67.8313V34.0166H73.5706V37.1104H72.2259V43.1572C72.2259 44.2764 72.0003 45.2168 71.5491 45.9785C71.1038 46.7344 70.4798 47.3027 69.677 47.6836C68.8743 48.0645 67.9339 48.2549 66.8557 48.2549ZM88.6452 48H82.1853V44.9062H83.5915V37.1104H82.1853V34.0166H88.6628C91.2058 34.0166 93.1511 34.6055 94.4987 35.7832C95.8523 36.9551 96.529 38.6924 96.529 40.9951C96.529 43.2393 95.8581 44.9678 94.5163 46.1807C93.1745 47.3936 91.2175 48 88.6452 48ZM88.0915 37.1104V44.9062H88.6452C89.3015 44.9062 89.8376 44.7393 90.2536 44.4053C90.6696 44.0654 90.9773 43.5996 91.1765 43.0078C91.3757 42.416 91.4753 41.7451 91.4753 40.9951C91.4753 39.8467 91.2527 38.9121 90.8073 38.1914C90.362 37.4707 89.6413 37.1104 88.6452 37.1104H88.0915ZM113.485 44.9062V48H106.181V44.9062H107.587V37.1104H106.181V34.0166H113.485V37.1104H112.087V44.9062H113.485ZM129.236 48.2549C127.777 48.2549 126.514 47.9414 125.448 47.3145C124.387 46.6875 123.579 45.8262 123.022 44.7305C122.471 43.6348 122.196 42.3838 122.196 40.9775C122.196 39.5186 122.471 38.2471 123.022 37.1631C123.573 36.0732 124.376 35.2324 125.43 34.6406C126.491 34.043 127.759 33.7441 129.236 33.7441C130.707 33.7441 131.972 34.04 133.033 34.6318C134.088 35.2295 134.89 36.0732 135.441 37.1631C135.998 38.2529 136.276 39.5244 136.276 40.9775C136.276 42.3838 136.001 43.6348 135.45 44.7305C134.899 45.8262 134.09 46.6875 133.024 47.3145C131.963 47.9414 130.701 48.2549 129.236 48.2549ZM129.236 45.1348C129.869 45.1348 130.352 44.751 130.686 43.9834C131.026 43.2158 131.196 42.1904 131.196 40.9072C131.196 39.6592 131.032 38.6719 130.704 37.9453C130.381 37.2188 129.892 36.8555 129.236 36.8555C128.574 36.8555 128.082 37.2188 127.759 37.9453C127.437 38.6719 127.276 39.6592 127.276 40.9072C127.276 42.1904 127.443 43.2158 127.777 43.9834C128.111 44.751 128.597 45.1348 129.236 45.1348Z" fill="black"/>
<path d="M24.9643 48.2549C24.5524 48.2309 24.1404 48.1852 23.7477 48.082C23.4268 47.997 23.1207 47.8686 22.8432 47.6981C22.5373 47.5068 22.249 47.2839 21.9721 47.0477L21.7937 46.896L21.6924 47.127C21.6692 47.1796 21.646 47.2323 21.6228 47.285C21.5297 47.4966 21.4367 47.7083 21.3439 47.92L21.5541 47.7751C20.6078 47.7279 19.6615 47.6829 18.7152 47.64L19.0752 48C19.1398 46.5732 19.1996 45.1465 19.2544 43.7197L18.7152 44.2589C19.6557 44.295 20.5961 44.3291 21.5365 44.3609L20.935 43.9417C21.1046 44.4602 21.4606 45.0394 22.0423 45.3676L22.0535 45.3736C22.6123 45.6819 23.2146 45.7798 23.7689 45.7947C24.152 45.8036 24.5928 45.7454 25.009 45.5218L25.021 45.5149C25.338 45.3669 25.7971 44.8541 25.7746 44.3086C25.8231 43.8548 25.4538 43.1808 25.025 42.9762L25.0372 42.9833C24.5983 42.7186 24.2049 42.5907 23.8124 42.4692C23.3061 42.3201 22.8144 42.1576 22.3425 41.9723C21.9529 41.8172 21.5706 41.6474 21.2123 41.4589C20.6375 41.156 20.172 40.7282 19.8296 40.1907C19.4758 39.6405 19.3419 38.8605 19.3536 38.042C19.3611 37.3877 19.5037 36.7858 19.8 36.278C20.0756 35.798 20.4667 35.4328 20.9718 35.1707C21.4666 34.9104 22.0439 34.7775 22.6627 34.75C22.7494 34.7461 22.837 34.7441 22.9252 34.7441C23.7419 34.7422 24.4005 34.9753 24.8729 35.4926L25.8206 36.5229L26.4772 35.2979C26.6252 35.0218 26.7729 34.7455 26.9205 34.4691L26.0541 34.9847C26.8949 34.979 27.7357 34.9716 28.5766 34.9625L27.6131 33.999C27.6282 35.3965 27.648 36.7939 27.6725 38.1914L28.5766 37.2874C27.6771 37.3032 26.7777 37.3209 25.8783 37.3406L26.646 37.8246C26.3975 37.3506 26.1176 36.8364 25.5005 36.4135C24.8977 36.0328 24.3003 35.9941 23.7865 35.9994C23.388 36.015 22.926 36.0471 22.4288 36.3705L22.4406 36.3629C22.0787 36.5607 21.7323 37.1486 21.7729 37.5938C21.7701 37.8771 21.8912 38.2275 22.0915 38.4517C22.2888 38.6804 22.5075 38.801 22.7001 38.8853L22.6858 38.8786C23.2276 39.115 23.714 39.2145 24.2052 39.3109C25.0837 39.4812 25.9518 39.7136 26.7558 40.0602C27.3834 40.3345 27.933 40.7643 28.3426 41.3304C28.7989 41.9357 28.9979 42.7531 29.0357 43.5879C29.0742 44.3588 28.9545 45.1367 28.634 45.8463C28.4738 46.198 28.2649 46.5299 28.0081 46.8254C27.7785 47.0902 27.5111 47.3253 27.2159 47.5258C26.5688 47.9745 25.7743 48.2124 24.9643 48.2549C25.7726 48.3039 26.6157 48.1565 27.3537 47.7532C27.6867 47.575 28.0012 47.3529 28.2814 47.0894C28.5947 46.7957 28.8638 46.4512 29.0808 46.0771C29.5141 45.3263 29.7356 44.454 29.7697 43.5879C29.8085 42.6691 29.6852 41.6674 29.1418 40.7964C28.6997 40.0602 28.0254 39.4373 27.2557 39.032C26.367 38.5684 25.4355 38.2514 24.4982 38.0048C24.0612 37.8923 23.6221 37.7588 23.3052 37.5921L23.2909 37.5854C23.2249 37.5519 23.1965 37.5164 23.2111 37.5249C23.227 37.5311 23.2513 37.5953 23.2513 37.5938C23.2765 37.5609 23.2049 37.6901 23.2516 37.6469L23.2634 37.6392C23.3201 37.6049 23.5377 37.5585 23.7865 37.5709C24.141 37.5789 24.4533 37.6628 24.5862 37.772C24.7413 37.8829 24.9555 38.2015 25.1106 38.5582L25.3235 39.0301L25.8783 39.0423C26.7777 39.0619 27.6771 39.0796 28.5766 39.0954L29.4644 39.111L29.4806 38.1914C29.5051 36.7939 29.5249 35.3965 29.54 33.999L29.5503 33.0461L28.5766 33.0356C27.7357 33.0265 26.8949 33.0191 26.0541 33.0134L25.4742 33.0094L25.1877 33.529C25.0365 33.8034 24.8854 34.0778 24.7345 34.3524L26.3388 34.1578C25.4827 33.1659 24.0851 32.7192 22.9252 32.7442C22.808 32.7442 22.6902 32.7467 22.5718 32.7521C21.7317 32.789 20.8444 32.979 20.0418 33.4089C19.2478 33.8206 18.5258 34.5017 18.0861 35.3086C17.6055 36.1583 17.4144 37.1369 17.4264 38.042C17.4405 39.0674 17.6036 40.2091 18.2864 41.2195C18.8148 42.0006 19.5783 42.6477 20.4193 43.045C20.8599 43.2555 21.3029 43.43 21.7467 43.5851C22.2928 43.7731 22.8364 43.9252 23.38 44.0578C23.6965 44.1357 24.0183 44.2396 24.2233 44.3507L24.2355 44.3578C24.2713 44.397 24.1942 44.2394 24.2242 44.3086C24.217 44.2385 24.3406 44.1362 24.2571 44.2097L24.2691 44.2028C24.1583 44.2759 23.986 44.326 23.7689 44.3342C23.3647 44.3489 22.9869 44.2971 22.6895 44.1576L22.7007 44.1636C22.4702 44.0566 22.277 43.8317 22.1381 43.4977L21.9611 43.0641L21.5365 43.0785C20.5961 43.1104 19.6557 43.1444 18.7152 43.1806L18.1562 43.2021L18.1761 43.7197C18.2309 45.1465 18.2906 46.5732 18.3553 48L18.3723 48.3755L18.7152 48.36C19.6615 48.3171 20.6078 48.2721 21.5541 48.2249L21.72 48.2166L21.7643 48.08C21.8357 47.8601 21.9069 47.6401 21.978 47.4201C21.9957 47.3653 22.0134 47.3106 22.0311 47.2558L21.7514 47.3351C22.0616 47.5491 22.3838 47.7486 22.7251 47.9147C23.0425 48.066 23.3796 48.1655 23.7198 48.2168C24.136 48.2786 24.552 48.2774 24.9643 48.2549ZM48.2918 44.8359C48.2307 45.8906 48.1723 46.9453 48.1168 48L48.2918 47.8249C48.1968 47.8199 48.1018 47.815 48.0068 47.81C45.4914 47.6787 42.9761 47.5634 40.4608 47.4641L40.9967 48C41.0384 46.9453 41.0772 45.8906 41.1133 44.8359L40.4608 45.4884C40.9412 45.5049 41.4217 45.5207 41.9022 45.536L42.5793 45.5575L42.6022 44.8359C42.684 42.2607 42.7491 39.6855 42.7974 37.1104L42.8139 36.2323L41.9022 36.2151C41.4891 36.2074 41.076 36.2001 40.6629 36.1932L39.894 36.1803L39.7568 36.9682C39.6175 37.7688 39.4797 38.5697 39.3437 39.3708L40.285 38.5657C39.4618 38.5553 38.6385 38.5467 37.8153 38.5397L38.7941 39.5186C38.8082 37.8457 38.8153 36.1729 38.8153 34.5C38.8153 34.3389 38.8152 34.1777 38.8151 34.0166L37.8153 35.0164C42.201 35.0128 46.5868 34.9608 50.9725 34.8602L50.1289 34.0166C50.171 35.8506 50.2215 37.6846 50.2805 39.5186L50.9725 38.8266C50.1522 38.853 49.3319 38.8811 48.5116 38.9109L49.1119 39.4243C48.9568 38.6262 48.8 37.8283 48.6416 37.0306L48.5519 36.5793L48.1336 36.5962C47.7059 36.6135 47.2782 36.6312 46.8504 36.6494L46.3708 36.6699L46.3895 37.1104C46.4707 39.0163 46.561 40.9223 46.6604 42.8282C46.6954 43.4974 46.7314 44.1667 46.7686 44.8359L46.7734 44.9221L46.8504 44.9178C47.3309 44.8911 47.8114 44.8638 48.2918 44.8359C47.8114 44.8081 47.3309 44.7808 46.8504 44.7541L46.9323 44.8359C46.9694 44.1667 47.0055 43.4974 47.0404 42.8282C47.1399 40.9223 47.2302 39.0163 47.3113 37.1104L46.8504 37.5713C47.2782 37.5895 47.7059 37.6072 48.1336 37.6245L47.6257 37.1901C47.7192 37.9979 47.8144 38.8055 47.9112 39.6128L47.9704 40.1066L48.5116 40.1262C49.3319 40.156 50.1522 40.1841 50.9725 40.2105L51.6415 40.2321L51.6645 39.5186C51.7235 37.6846 51.774 35.8506 51.8161 34.0166L51.835 33.1928L50.9725 33.173C46.5868 33.0724 42.201 33.0204 37.8153 33.0168L36.8163 33.016L36.8155 34.0166C36.8153 34.1777 36.8153 34.3389 36.8153 34.5C36.8153 36.1729 36.8223 37.8457 36.8364 39.5186L36.8448 40.5056L37.8153 40.4974C38.6385 40.4904 39.4618 40.4818 40.285 40.4714L41.1119 40.461L41.2263 39.6663C41.3422 38.862 41.4564 38.0574 41.569 37.2525L40.6629 38.0275C41.076 38.0206 41.4891 38.0133 41.9022 38.0056L41.007 37.1104C41.0553 39.6855 41.1204 42.2607 41.2022 44.8359L41.9022 44.1359C41.4217 44.1512 40.9412 44.167 40.4608 44.1834L39.7868 44.2065L39.8083 44.8359C39.8443 45.8906 39.8832 46.9453 39.9248 48L39.9468 48.5562L40.4608 48.5359C42.9761 48.4366 45.4914 48.3213 48.0068 48.19C48.1018 48.185 48.1968 48.1801 48.2918 48.1751L48.4756 48.1654L48.4669 48C48.4113 46.9453 48.353 45.8906 48.2918 44.8359ZM66.8557 48.2549C65.5628 48.1873 64.2302 47.9191 63.2285 47.1615C62.9633 46.9605 62.7272 46.727 62.5284 46.467C61.5487 45.161 61.3656 43.4393 61.4245 41.8037C61.484 40.2393 61.5386 38.6748 61.5884 37.1104L61.6073 36.5179L60.9759 36.4978C60.5012 36.4826 60.0266 36.468 59.552 36.4537L60.2086 37.1104C60.2396 36.0791 60.2684 35.0479 60.2952 34.0166L59.552 34.7597C62.095 34.8257 64.638 34.8789 67.1809 34.9195L66.278 34.0166C66.2616 35.0479 66.2472 36.0791 66.235 37.1104L67.1809 36.1644C66.7503 36.1593 66.3196 36.1545 65.8889 36.1501L64.9386 36.1404L64.9287 37.1104C64.9087 39.0732 64.8962 41.0361 64.8913 42.999C64.8866 43.6317 65.0361 44.3967 65.5155 45.02C65.6631 45.2116 65.8417 45.3808 66.0378 45.5139C66.5822 45.8813 67.1631 45.957 67.638 45.9582C68.2293 45.9698 69.024 45.761 69.5447 45.2082C70.0889 44.6554 70.2751 43.8732 70.2636 43.2803C70.2535 41.2236 70.2351 39.167 70.2084 37.1104L70.1961 36.1627L69.2727 36.1747C68.7923 36.1809 68.3118 36.1876 67.8313 36.1947L68.7469 37.1104C68.7316 36.0791 68.7142 35.0479 68.6947 34.0166L67.8313 34.88C69.7444 34.8438 71.6575 34.8004 73.5706 34.7498L72.8374 34.0166C72.8646 35.0479 72.894 36.0791 72.9254 37.1104L73.5706 36.4652C73.1223 36.4788 72.6741 36.4929 72.2259 36.5073L71.6041 36.5274L71.6229 37.1104C71.6878 39.126 71.7608 41.1416 71.8418 43.1572C71.8814 44.0881 71.7577 45.0321 71.325 45.8458C71.095 46.2825 70.7886 46.6789 70.4126 47.0068C70.1714 47.2177 69.9028 47.4007 69.6157 47.5544C68.7841 48.0011 67.8213 48.2063 66.8557 48.2549C67.8207 48.3045 68.8173 48.1992 69.7383 47.8128C70.057 47.6793 70.3643 47.5103 70.6486 47.3046C71.0918 46.9852 71.4748 46.5745 71.7735 46.1107C72.3457 45.2327 72.5719 44.176 72.6099 43.1572C72.6909 41.1416 72.7639 39.126 72.8289 37.1104L72.2259 37.7134C72.6741 37.7278 73.1223 37.7419 73.5706 37.7555L74.1955 37.7746L74.2158 37.1104C74.2472 36.0791 74.2765 35.0479 74.3038 34.0166L74.3227 33.3033L73.5706 33.2834C71.6575 33.2328 69.7444 33.1894 67.8313 33.1532L66.9846 33.1372L66.968 34.0166C66.9485 35.0479 66.931 36.0791 66.9157 37.1104L66.9023 38.0122L67.8313 38.026C68.3118 38.0331 68.7923 38.0398 69.2727 38.046L68.337 37.1104C68.3104 39.167 68.292 41.2236 68.2819 43.2803C68.2777 43.5749 68.2114 43.7215 68.1152 43.8202C68.031 43.9012 67.9158 43.957 67.638 43.9598C67.3922 43.9612 67.2238 43.9062 67.1643 43.8613C67.1396 43.8443 67.1219 43.8279 67.1015 43.802C66.9688 43.631 66.8874 43.3634 66.8866 42.999C66.8817 41.0361 66.8692 39.0732 66.8492 37.1104L65.8889 38.0706C66.3196 38.0662 66.7503 38.0614 67.1809 38.0563L68.138 38.0449L68.1269 37.1104C68.1146 36.0791 68.1003 35.0479 68.0838 34.0166L68.0692 33.0995L67.1809 33.1137C64.638 33.1543 62.095 33.2075 59.552 33.2735L58.7901 33.2932L58.8089 34.0166C58.8357 35.0479 58.8645 36.0791 58.8954 37.1104L58.9157 37.786L59.552 37.767C60.0266 37.7527 60.5012 37.7381 60.9759 37.7229L60.3633 37.1104C60.4131 38.6748 60.4677 40.2393 60.5272 41.8037C60.5963 43.5356 60.9426 45.4137 62.1646 46.7722C62.4161 47.0463 62.7037 47.2822 63.0136 47.4749C64.188 48.1971 65.5629 48.3161 66.8557 48.2549ZM88.6452 48C87.7491 47.9333 86.853 47.87 85.9569 47.81C84.6997 47.7258 83.4425 47.6482 82.1853 47.5772L82.6081 48C82.6664 46.9688 82.7203 45.9375 82.7697 44.9062L82.1853 45.4907C82.654 45.5132 83.1228 45.5348 83.5915 45.5554L84.2109 45.5827L84.2407 44.9062C84.3552 42.3076 84.4417 39.709 84.5001 37.1104L84.5201 36.2226L83.5915 36.2018C83.1228 36.1912 82.654 36.1816 82.1853 36.1729L83.1228 37.1104C83.1419 36.0791 83.1567 35.0479 83.1671 34.0166L82.1853 34.9984C83.3944 35.0105 84.6036 35.0166 85.8128 35.0166C86.7628 35.0166 87.7128 35.0129 88.6628 35.0054C90.6036 34.9878 92.5545 35.3233 93.9158 36.4503C95.1942 37.4589 95.7698 39.185 95.8345 40.9951C95.9246 42.7799 95.5132 44.6002 94.2393 45.8742C93.4608 46.6756 92.4054 47.2234 91.2749 47.5507C90.4287 47.7975 89.5414 47.9331 88.6452 48C89.5415 48.0661 90.45 48.0587 91.3564 47.9219C92.564 47.741 93.7891 47.3059 94.7933 46.4871C96.438 45.1988 97.1734 43.0003 97.2235 40.9951C97.3244 38.9978 96.8046 36.6341 95.0786 35.1135C93.2664 33.4689 90.8301 33.0475 88.6628 33.0278C87.7128 33.0203 86.7628 33.0166 85.8128 33.0166C84.6036 33.0166 83.3944 33.0227 82.1853 33.0348L81.1937 33.0448L81.2035 34.0166C81.2138 35.0479 81.2286 36.0791 81.2478 37.1104L81.2655 38.065L82.1853 38.0478C82.654 38.0391 83.1228 38.0295 83.5915 38.019L82.6829 37.1104C82.7414 39.709 82.8278 42.3076 82.9424 44.9062L83.5915 44.2571C83.1228 44.2777 82.654 44.2993 82.1853 44.3218L81.5742 44.3511L81.6008 44.9062C81.6503 45.9375 81.7041 46.9688 81.7624 48L81.7876 48.4453L82.1853 48.4228C83.4425 48.3518 84.6997 48.2742 85.9569 48.19C86.853 48.13 87.7491 48.0667 88.6452 48ZM89.0915 37.1104C88.4249 37.1104 87.7582 37.1104 87.0915 37.1104C87.0915 37.4406 87.0915 37.7709 87.0915 38.1012C87.0915 40.3696 87.0915 42.6379 87.0915 44.9062V45.9062H88.0915C88.2761 45.9062 88.4607 45.9062 88.6452 45.9062C89.3537 45.9114 90.2084 45.7314 90.8797 45.1851C91.5009 44.6828 91.9048 43.9899 92.1242 43.3269C92.3859 42.5473 92.4748 41.7555 92.4753 40.9951C92.4715 39.9222 92.3156 38.7411 91.658 37.6658C91.1689 36.8039 90.0997 36.2164 89.2011 36.1426C89.012 36.1199 88.8264 36.1104 88.6452 36.1104C88.4607 36.1104 88.2761 36.1104 88.0915 36.1104C88.0915 36.777 88.0915 37.4437 88.0915 38.1104C88.2761 38.1104 88.4607 38.1104 88.6452 38.1104C88.7558 38.1103 88.862 38.1163 88.9619 38.1283C89.4532 38.1935 89.7306 38.3604 89.9566 38.717C90.3272 39.3109 90.4771 40.1332 90.4753 40.9951C90.4755 41.5957 90.402 42.1752 90.2287 42.6888C90.0918 43.0965 89.8894 43.4126 89.621 43.6308C89.4027 43.8084 89.0757 43.9066 88.6452 43.9062C88.4607 43.9062 88.2761 43.9062 88.0915 43.9062L89.0915 44.9062C89.0915 42.6379 89.0915 40.3696 89.0915 38.1012C89.0915 37.7709 89.0915 37.4406 89.0915 37.1104ZM113.485 44.9062C113.418 45.7093 113.355 46.5123 113.295 47.3153C113.277 47.5436 113.261 47.7718 113.244 48L113.485 47.7597C111.05 47.5835 108.615 47.438 106.181 47.3231L106.858 48C106.906 46.9688 106.95 45.9375 106.987 44.9062L106.181 45.7127C106.65 45.7298 107.118 45.7458 107.587 45.7606L108.414 45.7868L108.441 44.9062C108.524 42.3076 108.571 39.709 108.584 37.1104L108.588 36.1185L107.587 36.1137C107.121 36.1115 106.655 36.1104 106.19 36.1104C106.187 36.1104 106.184 36.1104 106.181 36.1104L107.181 37.1104C107.181 36.0791 107.175 35.0479 107.164 34.0166L106.181 35C108.615 34.974 111.05 34.9173 113.485 34.83L112.671 34.0166C112.708 35.0479 112.751 36.0791 112.799 37.1104L113.485 36.4244C113.019 36.446 112.553 36.4688 112.087 36.4928L111.439 36.526L111.469 37.1104C111.586 39.3718 111.728 41.6332 111.897 43.8946C111.922 44.2318 111.948 44.569 111.974 44.9062L111.984 45.027L112.087 45.0189C112.553 44.9825 113.019 44.9449 113.485 44.9062C113.019 44.8676 112.553 44.83 112.087 44.7936L112.2 44.9062C112.226 44.569 112.252 44.2318 112.277 43.8946C112.446 41.6332 112.589 39.3718 112.705 37.1104L112.087 37.7279C112.553 37.7519 113.019 37.7747 113.485 37.7963L114.137 37.8267L114.171 37.1104C114.218 36.0791 114.261 35.0479 114.298 34.0166L114.326 33.2334L113.485 33.2032C111.05 33.1159 108.615 33.0592 106.181 33.0332L105.208 33.0228L105.197 34.0166C105.186 35.0479 105.181 36.0791 105.181 37.1104L105.181 38.1103L106.181 38.1104C106.184 38.1104 106.187 38.1104 106.19 38.1104C106.655 38.1104 107.121 38.1092 107.587 38.107L106.59 37.1104C106.603 39.709 106.65 42.3076 106.733 44.9062L107.587 44.0519C107.118 44.0667 106.65 44.0827 106.181 44.0998L105.346 44.1303L105.374 44.9062C105.412 45.9375 105.455 46.9688 105.504 48L105.537 48.7073L106.181 48.6769C108.615 48.562 111.05 48.4165 113.485 48.2403L113.741 48.2218L113.725 48C113.708 47.7718 113.692 47.5436 113.675 47.3153C113.615 46.5123 113.551 45.7093 113.485 44.9062ZM129.236 48.2549C128.474 48.1884 127.726 48.0385 127.028 47.7791C126.52 47.5906 126.041 47.344 125.608 47.0422C124.664 46.3892 123.945 45.4963 123.513 44.4808C123.044 43.382 122.888 42.1792 122.946 40.9775C123.001 39.7501 123.266 38.565 123.818 37.5674C124.307 36.666 125.02 35.9588 125.905 35.4866C126.882 34.9561 128.038 34.7427 129.235 34.7441C129.235 34.7441 129.236 34.7441 129.236 34.7441C130.43 34.7427 131.584 34.9543 132.56 35.4791C133.441 35.9536 134.155 36.6642 134.644 37.5657C135.201 38.5679 135.47 39.7508 135.526 40.9775C135.584 42.1792 135.428 43.3819 134.957 44.4829C134.531 45.499 133.811 46.391 132.864 47.0422C132.431 47.3452 131.952 47.592 131.444 47.7802C130.747 48.0393 129.998 48.1884 129.236 48.2549C129.997 48.3215 130.777 48.3005 131.547 48.146C132.108 48.0338 132.662 47.8492 133.185 47.5863C134.312 47.0348 135.304 46.1114 135.942 44.9781C136.641 43.7659 136.973 42.357 137.026 40.9775C137.085 39.5825 136.884 38.1036 136.236 36.7571C135.674 35.5442 134.691 34.4636 133.511 33.7877C132.18 33.0189 130.663 32.7417 129.236 32.7441C129.236 32.7441 129.235 32.7441 129.235 32.7441C127.805 32.7418 126.281 33.0213 124.954 33.7955C123.773 34.4653 122.788 35.5457 122.226 36.7605C121.581 38.1084 121.387 39.585 121.446 40.9775C121.499 42.357 121.831 43.7658 122.53 44.978C123.173 46.1082 124.161 47.0315 125.287 47.5863C125.811 47.848 126.365 48.0324 126.925 48.1448C127.695 48.2997 128.474 48.3215 129.236 48.2549ZM129.236 44.1348C129.236 44.8014 129.236 45.4681 129.236 46.1348C129.787 46.1492 130.433 45.8983 130.829 45.5155C131.218 45.1555 131.438 44.7557 131.603 44.3824C132.114 43.1882 132.186 42.0236 132.196 40.9072C132.185 39.8301 132.124 38.7076 131.615 37.5337C131.356 36.7869 130.325 35.7794 129.236 35.8555C128.153 35.7776 127.109 36.7796 126.845 37.5399C126.346 38.7135 126.287 39.8318 126.276 40.9072C126.286 42.0219 126.356 43.1825 126.86 44.3824C127.026 44.7593 127.251 45.1637 127.646 45.5246C128.046 45.9054 128.69 46.1487 129.236 46.1348C129.236 45.4681 129.236 44.8014 129.236 44.1348C129.108 44.1291 129.08 44.1175 128.986 44.0403C128.9 43.9649 128.786 43.7993 128.694 43.5844C128.376 42.8499 128.276 41.8758 128.276 40.9072C128.276 39.9769 128.371 39.0364 128.673 38.3508C128.763 38.1461 128.871 38.0039 128.951 37.9427C129.032 37.8824 129.086 37.859 129.236 37.8555C129.382 37.8592 129.432 37.8811 129.513 37.9414C129.592 38.0028 129.7 38.1462 129.79 38.3508C130.098 39.0384 130.196 39.9774 130.196 40.9072C130.195 41.8752 130.093 42.848 129.772 43.5786C129.678 43.7983 129.564 43.9644 129.478 44.0406C129.384 44.1193 129.359 44.1288 129.236 44.1348Z" fill="white" mask="url(#path-5-outside-1_8_11)"/>
</svg>
