<svg width="16" height="16" viewBox="0 0 513 513" fill="none" xmlns="http://www.w3.org/2000/svg">
<path d="M229.022 309.521C223.782 330.845 224.964 353.312 232.568 374.057L115.222 491.405C102.709 503.918 85.6624 511.012 67.9287 511.012C30.9811 511.012 1.02847 481.06 1.02832 444.112C1.02832 426.378 8.12259 409.332 20.6357 396.819L168.429 248.926L229.022 309.521ZM47.7314 7.72363C55.9808 -0.429832 68.9174 -1.28458 78.0137 5.80078L78.0186 5.80469L182.019 85.8047L182.021 85.8076C187.675 90.1193 191.028 96.8252 191.028 104.012V158.426L300.834 268.231L301.48 267.904C330.106 253.394 366.036 258.134 389.921 282.02L501.921 394.02C514.03 406.129 514.03 425.796 501.921 437.905L437.921 501.905C425.811 514.014 406.145 514.015 394.035 501.905L282.035 389.905L282.034 389.903L281.476 389.342C257.981 365.459 253.522 329.868 267.92 301.464L268.248 300.817L158.442 191.012H103.929C96.8399 191.012 90.034 187.657 85.7236 182.006L85.7207 182.002L5.7207 78.002C-1.27391 68.7987 -0.40805 55.8622 7.73535 47.7188L47.7305 7.72266L47.7314 7.72363ZM80.0283 407.012C73.398 407.012 67.039 409.646 62.3506 414.334C57.6622 419.022 55.0284 425.381 55.0283 432.012C55.0283 438.642 57.6623 445.001 62.3506 449.689C67.039 454.378 73.3979 457.012 80.0283 457.012C86.6587 457.012 93.0176 454.378 97.7061 449.689C102.394 445.001 105.028 438.642 105.028 432.012C105.028 425.381 102.394 419.022 97.7061 414.334C93.0177 409.646 86.6587 407.012 80.0283 407.012ZM368.028 1.01172C378.458 1.01172 388.588 2.10476 398.421 4.19043V4.18945C403.614 5.3031 406.862 9.01492 407.893 13.4033C408.927 17.8085 407.723 22.9033 403.921 26.7051L340.021 90.6045C336.835 93.7908 335.028 98.1454 335.028 102.612V160.112C335.028 169.464 342.676 177.112 352.028 177.112H409.429C413.895 177.112 418.249 175.305 421.436 172.119L485.336 108.219C489.138 104.417 494.233 103.214 498.638 104.248C503.026 105.279 506.737 108.527 507.851 113.722C509.936 123.452 511.028 133.582 511.028 144.012C511.028 201.06 477.558 250.333 429.236 273.306L414.035 258.104C385.721 229.791 345.819 220.061 309.637 229.007L225.028 144.397V144.012C225.028 65.0642 289.081 1.01174 368.028 1.01172Z" stroke="currentColor" stroke-width="16"/>
<path d="M229.022 309.521C223.782 330.845 224.964 353.312 232.568 374.057L115.222 491.405C102.709 503.918 85.6624 511.012 67.9287 511.012C30.9811 511.012 1.02847 481.06 1.02832 444.112C1.02832 426.378 8.12259 409.332 20.6357 396.819L168.429 248.926L229.022 309.521ZM47.7314 7.72363C55.9808 -0.429832 68.9174 -1.28458 78.0137 5.80078L78.0186 5.80469L182.019 85.8047L182.021 85.8076C187.675 90.1193 191.028 96.8252 191.028 104.012V158.426L300.834 268.231L301.48 267.904C330.106 253.394 366.036 258.134 389.921 282.02L501.921 394.02C514.03 406.129 514.03 425.796 501.921 437.905L437.921 501.905C425.811 514.014 406.145 514.015 394.035 501.905L282.035 389.905L282.034 389.903L281.476 389.342C257.981 365.459 253.522 329.868 267.92 301.464L268.248 300.817L158.442 191.012H103.929C96.8399 191.012 90.034 187.657 85.7236 182.006L85.7207 182.002L5.7207 78.002C-1.27391 68.7987 -0.40805 55.8622 7.73535 47.7188L47.7305 7.72266L47.7314 7.72363ZM80.0283 407.012C73.398 407.012 67.039 409.646 62.3506 414.334C57.6622 419.022 55.0284 425.381 55.0283 432.012C55.0283 438.642 57.6623 445.001 62.3506 449.689C67.039 454.378 73.3979 457.012 80.0283 457.012C86.6587 457.012 93.0176 454.378 97.7061 449.689C102.394 445.001 105.028 438.642 105.028 432.012C105.028 425.381 102.394 419.022 97.7061 414.334C93.0177 409.646 86.6587 407.012 80.0283 407.012ZM368.028 1.01172C378.458 1.01172 388.588 2.10476 398.421 4.19043V4.18945C403.614 5.3031 406.862 9.01492 407.893 13.4033C408.927 17.8085 407.723 22.9033 403.921 26.7051L340.021 90.6045C336.835 93.7908 335.028 98.1454 335.028 102.612V160.112C335.028 169.464 342.676 177.112 352.028 177.112H409.429C413.895 177.112 418.249 175.305 421.436 172.119L485.336 108.219C489.138 104.417 494.233 103.214 498.638 104.248C503.026 105.279 506.737 108.527 507.851 113.722C509.936 123.452 511.028 133.582 511.028 144.012C511.028 201.06 477.558 250.333 429.236 273.306L414.035 258.104C385.721 229.791 345.819 220.061 309.637 229.007L225.028 144.397V144.012C225.028 65.0642 289.081 1.01174 368.028 1.01172Z" stroke="currentColor" stroke-opacity="1" stroke-width="16"/>
</svg>
